<svg viewBox="0 0 668.3 893.4" xmlns="http://www.w3.org/2000/svg"><path d="m172.9 220.5s-68.5 15.7-68.5 55.6 57.9 125.7 40 173.6c-18 48 66.3 45.2 66.3 45.2s1.7-246.6-37.8-274.4z" fill="#5f2700"/><g fill="#491f0a"><path d="m135.3 316c-32.8-15.7-20-65.5-20-65.6-6.5 7.1-10.9 15.6-10.9 25.7 0 39.9 57.9 125.7 40 173.6-2.1 5.7-2.7 10.5-2.3 14.9 2.5 6 4.3 10.4 4.8 12 0 .1.1.1.1.2 3.3 9.4 46.2-9.4 46.2-9.4l1.2-122.8s-17-52.5-19.4-60.8c2.5 9-7.4 47.7-39.7 32.2z"/><path d="m174.9 283.7c0-.1 0-.4-.1-.5-.3-1.1-.3-.8.1.5z"/><path d="m523.7 220.5s68.5 15.7 68.5 55.6-57.9 125.7-40 173.6c18 48-66.3 45.2-66.3 45.2s-1.7-246.6 37.8-274.4z"/></g><path d="m508.8 461.2s67.4-38.6 76.7-24.1c9.3 14.4 12.2 79.6-12.8 109.2-25.1 29.6-55.5-16.4-55.5-16.4z" fill="#fdb27f"/><path d="m540.1 470s34.6-32.1 37.4-7.1-7.7 83.2-23.7 75.6-21-26.4-21-26.4 27.5-31.5 7.3-42.1z" fill="#ef8c5e"/><path d="m178.9 453.3s-43.7-35.6-51.9-19.2c-8.3 16.4-8.4 88 16.6 119s52.1-21.1 52.1-21.1z" fill="#fdb27f"/><path d="m171.3 467.6s-34.2-33.2-35.9-5.7 10.6 90.8 25.5 81.6 18.9-30.1 18.9-30.1-27.3-33-8.5-45.8z" fill="#ef8c5e"/><path d="m247.2 105.7s2.5 34 35.6 16.4c55.2-29.2 316.4-75 242 118.2-74.4 193.1-345 95.6-361 34.3-24.8-94.5 85.7-119.7 83.4-168.9z" fill="#5f2700"/><path d="m177.3 220.5s-24.9 30.9 10.7 39.9c22.1 5.6 66.8-50.6 161.1-5 0 0 37.3-42.1 95.3-34.9 39.9 4.9 72.9 19 89-6.9 0 0-7.5 70.5-58.9 74.3-39.6 2.9-294.7 9.5-294.7 9.5s-32.4-50.2-2.5-76.9z" fill="#491f0a"/><path d="m163.8 274.7c2.7 10.3 13 21.5 27.8 32.2-1.9-1.7-4.2-3.2-5.7-5.2-51.3-66.3 28.9-131.5 47-148.6 18.2-17.1 14.3-47.4 14.3-47.4 2.3 49.2-108.2 74.4-83.4 169z" fill="#491f0a"/><path d="m350 260.4s-147.1-38.5-172 43c0 0 6.8 203.7-11.3 251.2s53.4 139 87.4 182c33.9 43 89.2 39.8 145.8 33s156.2-172 138.1-210.5-38.5-187.8-29.4-285.2c-.1.1-63.5-65.6-158.6-13.5z" fill="#fdb27f"/><path d="m341.8 260.4c.9-.5 1.7-.8 2.6-1.3-11.8-2.6-41.1-8.3-72.2-7.7 36.6.1 69.6 9 69.6 9z" fill="#fcc282"/><path d="m537.9 559.1c-18.1-38.5-38.5-187.8-29.4-285.2 0 0-34.5-35.6-90.7-33.4 47 2.7 75.4 33.4 75.4 33.4-8.7 97.3 10.8 246.7 28.1 285.2s-77.9 203.7-131.9 210.5c-17.7 2.2-35.3 3.9-52.1 3.8 19.9.8 41.1-1.3 62.5-3.8 56.6-6.8 156.2-172 138.1-210.5z" fill="#fcc282"/><path d="m358.1 260.4c26.5-15.2 50.4-20.2 71-19.9-21.9-1.1-47.7 3.4-76.4 18.6 3.4.7 5.4 1.3 5.4 1.3z" fill="#ef8c5e"/><path d="m266.3 736.6c-32.5-43-101-134.4-83.6-182 17.3-47.5 10.8-251.2 10.8-251.2 11.6-39.8 51.2-50.9 88.6-51.9-42.1-.9-90.7 8.2-104.1 51.9 0 0 6.8 203.7-11.3 251.2s53.4 139 87.4 182c22.9 29 55.6 36.8 91.8 36.9-31.4-1.3-59.4-10.2-79.6-36.9z" fill="#ef8c5e"/><path d="m308.2 460.7s-11.1-38-22.4-41c-11.3-2.9-44.3-4.4-57.6 12.2-13.3 16.5-19.5 30.8-19.5 30.8s66.7 32.7 99.5-2z" fill="#ba6931"/><path d="m308.2 460.7s-11.1-38-22.4-41c-11.3-2.9-44.3-4.4-57.6 12.2-13.3 16.5-19.5 30.8-19.5 30.8l5.8.2z" fill="#491f0a"/><path d="m304.9 461.2s-10-32.5-20.3-35.1c-10.3-2.5-40.2-3.7-52.3 10.4-12.1 14.2-17.7 26.3-17.7 26.3s60.5 28.1 90.3-1.6z" fill="#f4e5d9"/><path d="m386.5 460.1s11.1-38 22.4-41c11.3-2.9 44.3-4.4 57.6 12.2 13.3 16.5 19.5 30.8 19.5 30.8s-66.7 32.7-99.5-2z" fill="#ba6931"/><path d="m386.5 460.1s11.1-38 22.4-41c11.3-2.9 44.3-4.4 57.6 12.2 13.3 16.5 19.5 30.8 19.5 30.8l-5.8.2z" fill="#491f0a"/><path d="m389.7 460.6s10-32.5 20.3-35.1c10.3-2.5 40.2-3.7 52.3 10.4 12.1 14.2 17.7 26.3 17.7 26.3s-60.4 28.1-90.3-1.6z" fill="#f4e5d9"/><path d="m331.5 573.1c0 2.1 9.4 4.1 21 4.4s21-1.2 20.9-3.3c0-2.1-9.4-4.1-21-4.4-11.5-.3-20.9 1.2-20.9 3.3z" fill="#ffcea2"/><path d="m247.7 449.4c1.5 11.3 11.8 19.2 23.1 17.7s19.2-11.8 17.7-23.1-11.8-19.2-23.1-17.7-19.2 11.8-17.7 23.1z" fill="#b24a0d"/><path d="m253.7 448.6c1 7.9 8.3 13.5 16.2 12.5s13.5-8.3 12.5-16.2-8.3-13.5-16.2-12.5-13.5 8.3-12.5 16.2z" fill="#491f0a"/><path d="m272.7 446.1c.6 4.6 4.9 7.9 9.5 7.3s7.9-4.9 7.3-9.5-4.9-7.9-9.5-7.3-7.9 4.9-7.3 9.5z" fill="#fff"/><path d="m262.4 453.9c.2 1.1 1.2 1.9 2.3 1.8s1.9-1.2 1.8-2.3-1.2-1.9-2.3-1.8c-1.2.1-2 1.1-1.8 2.3z" fill="#fff"/><path d="m411 449.4c1.5 11.3 11.8 19.2 23.1 17.7s19.2-11.8 17.7-23.1-11.8-19.2-23.1-17.7-19.2 11.8-17.7 23.1z" fill="#b24a0d"/><path d="m417 448.6c1 7.9 8.3 13.5 16.2 12.5s13.5-8.3 12.5-16.2-8.3-13.5-16.2-12.5-13.5 8.3-12.5 16.2z" fill="#491f0a"/><path d="m436 446.1c.6 4.6 4.9 7.9 9.5 7.3s7.9-4.9 7.3-9.5-4.9-7.9-9.5-7.3-7.9 4.9-7.3 9.5z" fill="#fff"/><path d="m425.7 453.9c.1 1.1 1.2 1.9 2.3 1.8s1.9-1.2 1.8-2.3-1.2-1.9-2.3-1.8c-1.2.1-2 1.1-1.8 2.3z" fill="#fff"/><path d="m319.8 403.8c2.7.9 6.1-39.1-15.4-46l7.7 23s-5.8-20.5-13.5-25c-4.6-2.7-25.8-9-51-3.3-28.1 6.4-37.7 14.6-41.4 23.6-3.6 9.1-6.7 30.3-6.7 30.3s54.4-23.6 120.3-2.6z" fill="#5f2700"/><path d="m374.5 398.3c-2.9.5.4-38.8 23.3-42.9l-11.6 21.4s9.3-19.2 17.9-22.7c5.1-2.1 27.6-5.6 52 3 27.3 9.7 35.7 18.8 37.8 28 2.2 9.3 1.8 30.3 1.8 30.3s-51-29.6-121.2-17.1z" fill="#5f2700"/><path d="m297.1 650.3s28 17.6 92.7.8c10.9-2.8 33.1-13.1 33.1-13.1s-29.5 24.8-40.7 25.9-66.8-1.3-71.1-3.7c-3.8-2.2-14-9.9-14-9.9z" fill="#c3552b"/><path d="m374.3 675.2c-14.2-1.3-63.5-4.5-56.5 7.6 7.3 12.5 24.2 25.5 41.1 19.1 16.8-6.4 31.4-25.3 15.4-26.7z" fill="#ef8c5e"/><path d="m399.6 595.6c-6.6 2.9-13.6 4.8-20.6 6.2-14.2 2.6-28.7 2.8-42.9.9-13.6-2-29.4-5.6-37.3-15.4-2.9-4.1-1.3-12.5 3-15.1 4.7-3.4 11.9-4.7 18.7-5.4 5.2-.6 5.8-3 5.8-5.5l-7.8-145.8-.7 143.2c-6.9 1.3-14 2.7-20.5 7.9-6.9 6.4-8.5 16.4-3.3 24.2 11.7 12.5 27.4 14 41.8 15.8 14.7 1.2 29.4.4 43.7-2.9 7.1-1.7 14.1-3.9 20.7-7.2 6.1-3.4 13.6-7.8 14.2-15.4-1.1 7.5-8.7 11.4-14.8 14.5z" fill="#be613f"/></svg>