<?xml version="1.0" encoding="UTF-8"?>
<svg xmlns="http://www.w3.org/2000/svg" xmlns:xlink="http://www.w3.org/1999/xlink" width="50px" height="50px" viewBox="0 0 50 50" version="1.1">
<g id="surface1">
<path style=" stroke:none;fill-rule:nonzero;fill:rgb(0%,0%,0%);fill-opacity:1;" d="M 38.445312 20.011719 C 35.984375 17.425781 32.703125 15.59375 29.039062 14.835938 L 29.039062 12.5625 C 29.039062 12.058594 28.851562 11.554688 28.472656 11.238281 C 28.09375 10.921875 27.652344 10.667969 27.144531 10.667969 L 26.136719 10.667969 L 26.074219 0.945312 C 26.074219 0.378906 25.632812 0 25.125 0 C 24.558594 0 24.179688 0.441406 24.179688 0.945312 L 24.242188 10.667969 L 23.230469 10.667969 C 22.726562 10.667969 22.222656 10.859375 21.90625 11.238281 C 21.589844 11.617188 21.339844 12.058594 21.339844 12.5625 L 21.339844 14.773438 C 17.488281 15.59375 14.140625 17.425781 11.554688 20.011719 C 8.082031 23.484375 5.996094 28.21875 5.996094 33.523438 C 5.996094 34.089844 6.4375 34.46875 6.945312 34.46875 L 17.046875 34.46875 C 17.296875 36.300781 18.054688 37.941406 19.316406 39.203125 C 20.769531 40.65625 22.789062 41.539062 25 41.539062 C 27.210938 41.539062 29.230469 40.65625 30.683594 39.203125 C 31.945312 37.941406 32.703125 36.300781 32.953125 34.46875 L 43.054688 34.46875 C 43.625 34.46875 44.003906 34.027344 44.003906 33.523438 C 44.003906 28.28125 41.855469 23.484375 38.445312 20.011719 Z M 23.167969 12.625 L 27.082031 12.625 L 27.082031 14.519531 C 27.019531 14.519531 27.019531 14.519531 26.957031 14.519531 C 26.832031 14.519531 26.769531 14.519531 26.640625 14.519531 C 26.136719 14.457031 25.566406 14.457031 25.0625 14.457031 C 24.558594 14.394531 24.054688 14.457031 23.546875 14.457031 C 23.421875 14.457031 23.296875 14.457031 23.167969 14.519531 Z M 29.355469 37.816406 C 28.21875 38.953125 26.703125 39.582031 25.0625 39.582031 C 23.359375 39.582031 21.84375 38.890625 20.769531 37.816406 C 19.886719 36.933594 19.253906 35.796875 19.066406 34.46875 L 31.125 34.46875 C 30.871094 35.730469 30.304688 36.933594 29.355469 37.816406 Z M 32.132812 32.511719 L 7.953125 32.511719 C 8.207031 28.15625 10.039062 24.242188 12.941406 21.402344 C 15.59375 18.75 19.066406 16.980469 22.980469 16.539062 C 23.105469 16.539062 23.296875 16.476562 23.421875 16.476562 C 23.925781 16.414062 24.496094 16.414062 25 16.414062 C 25.566406 16.414062 26.074219 16.414062 26.640625 16.476562 C 26.769531 16.476562 26.957031 16.539062 27.082031 16.539062 C 30.996094 16.980469 34.46875 18.75 37.121094 21.402344 C 40.023438 24.304688 41.855469 28.15625 42.109375 32.511719 Z M 32.132812 32.511719 "/>
<path style=" stroke:none;fill-rule:nonzero;fill:rgb(0%,0%,0%);fill-opacity:1;" d="M 25.0625 42.867188 C 24.496094 42.867188 24.117188 43.308594 24.117188 43.8125 L 24.117188 49.054688 C 24.117188 49.621094 24.558594 50 25.0625 50 C 25.632812 50 26.011719 49.558594 26.011719 49.054688 L 26.011719 43.8125 C 26.011719 43.246094 25.632812 42.867188 25.0625 42.867188 Z M 25.0625 42.867188 "/>
<path style=" stroke:none;fill-rule:nonzero;fill:rgb(0%,0%,0%);fill-opacity:1;" d="M 33.710938 46.464844 L 31.0625 41.917969 C 30.808594 41.476562 30.175781 41.289062 29.734375 41.539062 C 29.292969 41.792969 29.105469 42.425781 29.355469 42.867188 L 32.007812 47.410156 C 32.261719 47.855469 32.890625 48.042969 33.332031 47.789062 C 33.773438 47.539062 33.964844 46.90625 33.710938 46.464844 Z M 33.710938 46.464844 "/>
<path style=" stroke:none;fill-rule:nonzero;fill:rgb(0%,0%,0%);fill-opacity:1;" d="M 39.015625 40.46875 L 34.46875 37.816406 C 34.027344 37.5625 33.394531 37.6875 33.144531 38.195312 C 32.890625 38.636719 33.019531 39.269531 33.523438 39.519531 L 38.066406 42.171875 C 38.511719 42.425781 39.140625 42.296875 39.394531 41.792969 C 39.644531 41.351562 39.519531 40.71875 39.015625 40.46875 Z M 39.015625 40.46875 "/>
<path style=" stroke:none;fill-rule:nonzero;fill:rgb(0%,0%,0%);fill-opacity:1;" d="M 16.980469 38.195312 C 16.730469 37.753906 16.097656 37.5625 15.65625 37.816406 L 11.109375 40.46875 C 10.667969 40.71875 10.480469 41.351562 10.730469 41.792969 C 10.984375 42.234375 11.617188 42.425781 12.058594 42.171875 L 16.605469 39.519531 C 17.046875 39.203125 17.234375 38.636719 16.980469 38.195312 Z M 16.980469 38.195312 "/>
<path style=" stroke:none;fill-rule:nonzero;fill:rgb(0%,0%,0%);fill-opacity:1;" d="M 20.390625 41.539062 C 19.949219 41.289062 19.316406 41.476562 19.066406 41.917969 L 16.414062 46.464844 C 16.160156 46.90625 16.289062 47.539062 16.792969 47.789062 C 17.234375 48.042969 17.867188 47.917969 18.117188 47.410156 L 20.769531 42.867188 C 21.023438 42.425781 20.894531 41.792969 20.390625 41.539062 Z M 20.390625 41.539062 "/>
</g>
</svg>
