<?xml version="1.0" encoding="UTF-8"?>
<svg xmlns="http://www.w3.org/2000/svg" xmlns:xlink="http://www.w3.org/1999/xlink" width="50px" height="50px" viewBox="0 0 50 50" version="1.1">
<g id="surface1">
<path style=" stroke:none;fill-rule:nonzero;fill:rgb(0%,0%,0%);fill-opacity:1;" d="M 20.3125 46.484375 C 9.113281 46.484375 0 37.371094 0 26.171875 C 0 14.972656 9.113281 5.859375 20.3125 5.859375 C 20.746094 5.859375 21.09375 6.207031 21.09375 6.640625 C 21.09375 7.070312 20.746094 7.421875 20.3125 7.421875 C 9.972656 7.421875 1.5625 15.832031 1.5625 26.171875 C 1.5625 36.507812 9.972656 44.921875 20.3125 44.921875 C 20.746094 44.921875 21.09375 45.269531 21.09375 45.703125 C 21.09375 46.132812 20.746094 46.484375 20.3125 46.484375 Z M 20.3125 46.484375 "/>
<path style=" stroke:none;fill-rule:nonzero;fill:rgb(0%,0%,0%);fill-opacity:1;" d="M 20.3125 40.234375 C 13.421875 40.234375 7.8125 34.628906 7.8125 27.734375 C 7.8125 20.84375 13.421875 15.234375 20.3125 15.234375 C 27.207031 15.234375 32.8125 20.84375 32.8125 27.734375 C 32.8125 34.628906 27.207031 40.234375 20.3125 40.234375 Z M 20.3125 16.796875 C 14.28125 16.796875 9.375 21.703125 9.375 27.734375 C 9.375 33.765625 14.28125 38.671875 20.3125 38.671875 C 26.34375 38.671875 31.25 33.765625 31.25 27.734375 C 31.25 21.703125 26.34375 16.796875 20.3125 16.796875 Z M 20.3125 16.796875 "/>
<path style=" stroke:none;fill-rule:nonzero;fill:rgb(0%,0%,0%);fill-opacity:1;" d="M 20.3125 37.890625 C 14.714844 37.890625 10.15625 33.335938 10.15625 27.734375 C 10.15625 22.136719 14.714844 17.578125 20.3125 17.578125 C 25.914062 17.578125 30.46875 22.136719 30.46875 27.734375 C 30.46875 33.335938 25.914062 37.890625 20.3125 37.890625 Z M 20.3125 19.140625 C 15.574219 19.140625 11.71875 22.996094 11.71875 27.734375 C 11.71875 32.472656 15.574219 36.328125 20.3125 36.328125 C 25.050781 36.328125 28.90625 32.472656 28.90625 27.734375 C 28.90625 22.996094 25.050781 19.140625 20.3125 19.140625 Z M 20.3125 19.140625 "/>
<path style=" stroke:none;fill-rule:nonzero;fill:rgb(0%,0%,0%);fill-opacity:1;" d="M 20.3125 35.546875 C 16.003906 35.546875 12.5 32.042969 12.5 27.734375 C 12.5 23.425781 16.003906 19.921875 20.3125 19.921875 C 24.621094 19.921875 28.125 23.425781 28.125 27.734375 C 28.125 32.042969 24.621094 35.546875 20.3125 35.546875 Z M 20.3125 21.484375 C 16.867188 21.484375 14.0625 24.289062 14.0625 27.734375 C 14.0625 31.183594 16.867188 33.984375 20.3125 33.984375 C 23.757812 33.984375 26.5625 31.183594 26.5625 27.734375 C 26.5625 24.289062 23.757812 21.484375 20.3125 21.484375 Z M 20.3125 21.484375 "/>
<path style=" stroke:none;fill-rule:nonzero;fill:rgb(0%,0%,0%);fill-opacity:1;" d="M 20.3125 30.078125 C 19.019531 30.078125 17.96875 29.027344 17.96875 27.734375 C 17.96875 26.445312 19.019531 25.390625 20.3125 25.390625 C 21.605469 25.390625 22.65625 26.445312 22.65625 27.734375 C 22.65625 29.027344 21.605469 30.078125 20.3125 30.078125 Z M 20.3125 26.953125 C 19.882812 26.953125 19.53125 27.304688 19.53125 27.734375 C 19.53125 28.167969 19.882812 28.515625 20.3125 28.515625 C 20.746094 28.515625 21.09375 28.167969 21.09375 27.734375 C 21.09375 27.304688 20.746094 26.953125 20.3125 26.953125 Z M 20.3125 26.953125 "/>
<path style=" stroke:none;fill-rule:nonzero;fill:rgb(0%,0%,0%);fill-opacity:1;" d="M 20.3125 46.484375 C 19.882812 46.484375 19.53125 46.136719 19.53125 45.703125 C 19.53125 45.273438 19.882812 44.921875 20.3125 44.921875 C 29.789062 44.921875 37.5 37.210938 37.5 27.734375 C 37.5 23.621094 36.023438 19.640625 33.34375 16.527344 C 33.0625 16.199219 33.097656 15.707031 33.425781 15.425781 C 33.75 15.144531 34.242188 15.179688 34.527344 15.507812 C 37.453125 18.902344 39.0625 23.246094 39.0625 27.734375 C 39.0625 38.074219 30.652344 46.484375 20.3125 46.484375 Z M 20.3125 46.484375 "/>
<path style=" stroke:none;fill-rule:nonzero;fill:rgb(0%,0%,0%);fill-opacity:1;" d="M 41.402344 7.421875 L 20.3125 7.421875 C 19.878906 7.421875 19.53125 7.070312 19.53125 6.640625 C 19.53125 6.207031 19.878906 5.859375 20.3125 5.859375 L 41.402344 5.859375 C 41.832031 5.859375 42.183594 6.207031 42.183594 6.640625 C 42.183594 7.070312 41.832031 7.421875 41.402344 7.421875 Z M 41.402344 7.421875 "/>
<path style=" stroke:none;fill-rule:nonzero;fill:rgb(0%,0%,0%);fill-opacity:1;" d="M 41.402344 16.796875 L 20.3125 16.796875 C 19.882812 16.796875 19.53125 16.449219 19.53125 16.015625 C 19.53125 15.585938 19.882812 15.234375 20.3125 15.234375 L 41.402344 15.234375 C 41.835938 15.234375 42.183594 15.585938 42.183594 16.015625 C 42.183594 16.449219 41.835938 16.796875 41.402344 16.796875 Z M 41.402344 16.796875 "/>
<path style=" stroke:none;fill-rule:nonzero;fill:rgb(0%,0%,0%);fill-opacity:1;" d="M 49.21875 19.140625 L 41.40625 19.140625 C 40.972656 19.140625 40.625 18.789062 40.625 18.359375 L 40.625 4.296875 C 40.625 3.863281 40.972656 3.515625 41.40625 3.515625 L 49.21875 3.515625 C 49.652344 3.515625 50 3.863281 50 4.296875 L 50 18.359375 C 50 18.789062 49.652344 19.140625 49.21875 19.140625 Z M 42.1875 17.578125 L 48.4375 17.578125 L 48.4375 5.078125 L 42.1875 5.078125 Z M 42.1875 17.578125 "/>
<path style=" stroke:none;fill-rule:nonzero;fill:rgb(0%,0%,0%);fill-opacity:1;" d="M 20.3125 26.953125 C 19.882812 26.953125 19.53125 26.605469 19.53125 26.171875 L 19.53125 20.703125 C 19.53125 20.273438 19.882812 19.921875 20.3125 19.921875 C 20.746094 19.921875 21.09375 20.273438 21.09375 20.703125 L 21.09375 26.171875 C 21.09375 26.605469 20.746094 26.953125 20.3125 26.953125 Z M 20.3125 26.953125 "/>
<path style=" stroke:none;fill-rule:nonzero;fill:rgb(0%,0%,0%);fill-opacity:1;" d="M 20.3125 35.546875 C 19.882812 35.546875 19.53125 35.199219 19.53125 34.765625 L 19.53125 29.296875 C 19.53125 28.867188 19.882812 28.515625 20.3125 28.515625 C 20.746094 28.515625 21.09375 28.867188 21.09375 29.296875 L 21.09375 34.765625 C 21.09375 35.199219 20.746094 35.546875 20.3125 35.546875 Z M 20.3125 35.546875 "/>
<path style=" stroke:none;fill-rule:nonzero;fill:rgb(0%,0%,0%);fill-opacity:1;" d="M 19.207031 27.410156 C 19.007812 27.410156 18.808594 27.335938 18.65625 27.183594 L 14.789062 23.316406 C 14.484375 23.011719 14.484375 22.515625 14.789062 22.210938 C 15.09375 21.90625 15.589844 21.90625 15.894531 22.210938 L 19.761719 26.078125 C 20.066406 26.382812 20.066406 26.878906 19.761719 27.183594 C 19.609375 27.335938 19.410156 27.410156 19.207031 27.410156 Z M 19.207031 27.410156 "/>
<path style=" stroke:none;fill-rule:nonzero;fill:rgb(0%,0%,0%);fill-opacity:1;" d="M 25.285156 33.488281 C 25.085938 33.488281 24.886719 33.414062 24.734375 33.261719 L 20.867188 29.394531 C 20.5625 29.085938 20.5625 28.59375 20.867188 28.289062 C 21.171875 27.984375 21.664062 27.984375 21.972656 28.289062 L 25.835938 32.15625 C 26.144531 32.460938 26.144531 32.953125 25.835938 33.261719 C 25.683594 33.414062 25.484375 33.488281 25.285156 33.488281 Z M 25.285156 33.488281 "/>
<path style=" stroke:none;fill-rule:nonzero;fill:rgb(0%,0%,0%);fill-opacity:1;" d="M 18.75 28.515625 L 13.28125 28.515625 C 12.847656 28.515625 12.5 28.167969 12.5 27.734375 C 12.5 27.304688 12.847656 26.953125 13.28125 26.953125 L 18.75 26.953125 C 19.183594 26.953125 19.53125 27.304688 19.53125 27.734375 C 19.53125 28.167969 19.183594 28.515625 18.75 28.515625 Z M 18.75 28.515625 "/>
<path style=" stroke:none;fill-rule:nonzero;fill:rgb(0%,0%,0%);fill-opacity:1;" d="M 27.34375 28.515625 L 21.875 28.515625 C 21.445312 28.515625 21.09375 28.167969 21.09375 27.734375 C 21.09375 27.304688 21.445312 26.953125 21.875 26.953125 L 27.34375 26.953125 C 27.777344 26.953125 28.125 27.304688 28.125 27.734375 C 28.125 28.167969 27.777344 28.515625 27.34375 28.515625 Z M 27.34375 28.515625 "/>
<path style=" stroke:none;fill-rule:nonzero;fill:rgb(0%,0%,0%);fill-opacity:1;" d="M 15.339844 33.488281 C 15.140625 33.488281 14.941406 33.414062 14.789062 33.261719 C 14.484375 32.953125 14.484375 32.460938 14.789062 32.15625 L 18.65625 28.289062 C 18.960938 27.980469 19.457031 27.980469 19.761719 28.289062 C 20.066406 28.59375 20.066406 29.085938 19.761719 29.390625 L 15.894531 33.261719 C 15.742188 33.414062 15.542969 33.488281 15.339844 33.488281 Z M 15.339844 33.488281 "/>
<path style=" stroke:none;fill-rule:nonzero;fill:rgb(0%,0%,0%);fill-opacity:1;" d="M 21.417969 27.410156 C 21.21875 27.410156 21.019531 27.335938 20.867188 27.183594 C 20.5625 26.878906 20.5625 26.382812 20.867188 26.078125 L 24.734375 22.210938 C 25.039062 21.90625 25.53125 21.90625 25.839844 22.210938 C 26.144531 22.515625 26.144531 23.011719 25.839844 23.316406 L 21.972656 27.183594 C 21.820312 27.335938 21.617188 27.410156 21.417969 27.410156 Z M 21.417969 27.410156 "/>
</g>
</svg>
